<svg width="34" height="34" viewBox="0 0 34 34" fill="none" xmlns="http://www.w3.org/2000/svg">
<path d="M1.36757 17.9225C1.24368 17.9269 1.12019 17.9063 1.00445 17.8619C0.888706 17.8175 0.783094 17.7502 0.693907 17.6641C0.604722 17.578 0.533788 17.4749 0.485343 17.3608C0.436895 17.2467 0.411926 17.124 0.411926 17C0.411926 16.876 0.436895 16.7533 0.485343 16.6392C0.533788 16.5251 0.604722 16.422 0.693907 16.3359C0.783094 16.2498 0.888706 16.1825 1.00445 16.1381C1.12019 16.0937 1.24368 16.0731 1.36757 16.0775L16.1091 16.0764L16.1102 1.33486C16.1186 1.09584 16.2195 0.869415 16.3916 0.703301C16.5637 0.537187 16.7935 0.444351 17.0327 0.44435C17.2719 0.444351 17.5017 0.537187 17.6738 0.703301C17.8459 0.869414 17.9468 1.09584 17.9552 1.33486L17.9563 16.0764L32.6978 16.0775C32.9369 16.0859 33.1633 16.1868 33.3294 16.3589C33.4955 16.531 33.5884 16.7608 33.5884 17C33.5884 17.2392 33.4955 17.469 33.3294 17.6411C33.1633 17.8132 32.9369 17.9141 32.6978 17.9225L17.9563 17.9236L17.9552 32.6651C17.9468 32.9042 17.8459 33.1306 17.6738 33.2967C17.5017 33.4628 17.2719 33.5556 17.0327 33.5556C16.7935 33.5556 16.5637 33.4628 16.3916 33.2967C16.2195 33.1306 16.1186 32.9042 16.1102 32.6651L16.1091 17.9236L1.36757 17.9225Z" fill="black"/>
</svg>
