<svg width="34" height="24" viewBox="0 0 34 24" fill="none" xmlns="http://www.w3.org/2000/svg">
<path d="M28.3327 17.5C28.8784 17.5002 29.4031 17.6486 29.7981 17.9144C30.193 18.1802 30.4279 18.5431 30.4542 18.9279C30.4804 19.3127 30.2959 19.6898 29.9389 19.9812C29.582 20.2726 29.0799 20.4558 28.5367 20.493L28.3327 20.5H5.66602C5.12029 20.4998 4.59559 20.3514 4.20063 20.0856C3.80568 19.8198 3.57075 19.4569 3.54452 19.0721C3.5183 18.6873 3.70279 18.3102 4.05976 18.0188C4.41674 17.7274 4.91884 17.5442 5.46202 17.507L5.66602 17.5H28.3327ZM28.3327 10.5C28.8963 10.5 29.4368 10.658 29.8353 10.9393C30.2338 11.2206 30.4577 11.6022 30.4577 12C30.4577 12.3978 30.2338 12.7794 29.8353 13.0607C29.4368 13.342 28.8963 13.5 28.3327 13.5H5.66602C5.10243 13.5 4.56193 13.342 4.16341 13.0607C3.7649 12.7794 3.54102 12.3978 3.54102 12C3.54102 11.6022 3.7649 11.2206 4.16341 10.9393C4.56193 10.658 5.10243 10.5 5.66602 10.5H28.3327ZM28.3327 3.5C28.8963 3.5 29.4368 3.65804 29.8353 3.93934C30.2338 4.22064 30.4577 4.60218 30.4577 5C30.4577 5.39782 30.2338 5.77936 29.8353 6.06066C29.4368 6.34196 28.8963 6.5 28.3327 6.5H5.66602C5.10243 6.5 4.56193 6.34196 4.16341 6.06066C3.7649 5.77936 3.54102 5.39782 3.54102 5C3.54102 4.60218 3.7649 4.22064 4.16341 3.93934C4.56193 3.65804 5.10243 3.5 5.66602 3.5H28.3327Z" fill="black"/>
</svg>
