<svg width="24" height="24" viewBox="0 0 24 24" fill="none" xmlns="http://www.w3.org/2000/svg">
<path d="M23.7062 22.4016C23.7969 22.4861 23.8696 22.588 23.9201 22.7012C23.9705 22.8145 23.9977 22.9367 23.9999 23.0606C24.002 23.1846 23.9792 23.3077 23.9328 23.4226C23.8864 23.5376 23.8173 23.642 23.7296 23.7296C23.642 23.8173 23.5376 23.8864 23.4226 23.9328C23.3077 23.9792 23.1846 24.002 23.0606 23.9999C22.9367 23.9977 22.8145 23.9705 22.7012 23.9201C22.588 23.8696 22.4861 23.7969 22.4016 23.7062L11.977 13.2831L1.55236 23.7062C1.37737 23.8693 1.14593 23.958 0.906793 23.9538C0.667653 23.9496 0.439487 23.8527 0.270363 23.6836C0.101239 23.5145 0.00436315 23.2863 0.000143812 23.0472C-0.00407553 22.808 0.0846912 22.5766 0.247743 22.4016L10.6708 11.977L0.247743 1.55236C0.0846912 1.37737 -0.00407553 1.14593 0.000143812 0.906793C0.00436315 0.667653 0.101239 0.439487 0.270363 0.270363C0.439487 0.101239 0.667653 0.00436315 0.906793 0.000143812C1.14593 -0.00407553 1.37737 0.0846912 1.55236 0.247743L11.977 10.6708L22.4016 0.247743C22.5766 0.0846912 22.808 -0.00407553 23.0472 0.000143812C23.2863 0.00436315 23.5145 0.101239 23.6836 0.270363C23.8527 0.439487 23.9496 0.667653 23.9538 0.906793C23.958 1.14593 23.8693 1.37737 23.7062 1.55236L13.2831 11.977L23.7062 22.4016Z" fill="black"/>
</svg>
