<svg width="41" height="41" viewBox="0 0 41 41" fill="none" xmlns="http://www.w3.org/2000/svg">
<path fill-rule="evenodd" clip-rule="evenodd" d="M21.5141 39.7324L21.4953 39.7358L21.374 39.7956L21.3398 39.8025L21.3159 39.7956L21.1946 39.7358C21.1764 39.7301 21.1627 39.733 21.1536 39.7444L21.1468 39.7615L21.1177 40.4926L21.1263 40.5268L21.1434 40.549L21.321 40.6754L21.3467 40.6822L21.3672 40.6754L21.5448 40.549L21.5653 40.5217L21.5722 40.4926L21.5431 39.7632C21.5386 39.7449 21.5289 39.7347 21.5141 39.7324ZM21.9668 39.5394L21.9446 39.5428L21.6285 39.7017L21.6114 39.7187L21.6063 39.7375L21.6371 40.4721L21.6456 40.4926L21.6593 40.5046L22.0026 40.6635C22.0243 40.6691 22.0408 40.6646 22.0522 40.6498L22.059 40.6259L22.0009 39.577C21.9952 39.5565 21.9839 39.5439 21.9668 39.5394ZM20.7453 39.5428C20.7378 39.5382 20.7288 39.5367 20.7202 39.5387C20.7116 39.5406 20.7041 39.5457 20.6992 39.553L20.6889 39.577L20.6309 40.6259C20.632 40.6464 20.6417 40.66 20.6599 40.6669L20.6855 40.6635L21.0289 40.5046L21.046 40.4909L21.0528 40.4721L21.0819 39.7375L21.0767 39.717L21.0597 39.7L20.7453 39.5428Z" fill="black"/>
<path fill-rule="evenodd" clip-rule="evenodd" d="M17.9376 3.41669C15.6221 3.41688 13.3402 3.97081 11.2823 5.03225C9.22447 6.09369 7.45027 7.63186 6.10776 9.51843C4.76526 11.405 3.89338 13.5853 3.56486 15.8773C3.23635 18.1694 3.46072 20.5068 4.21927 22.6945C4.97782 24.8822 6.24855 26.8568 7.92543 28.4536C9.60231 30.0503 11.6367 31.2228 13.8589 31.8734C16.0812 32.524 18.4267 32.6337 20.7 32.1934C22.9732 31.7531 25.1082 30.7756 26.9268 29.3424L33.1657 35.5812C33.4878 35.8924 33.9194 36.0646 34.3673 36.0607C34.8152 36.0568 35.2437 35.8771 35.5604 35.5604C35.8772 35.2436 36.0568 34.8152 36.0607 34.3672C36.0646 33.9193 35.8924 33.4878 35.5812 33.1656L29.3424 26.9268C31.0302 24.7856 32.0811 22.2125 32.3749 19.5019C32.6686 16.7913 32.1933 14.0528 31.0033 11.5998C29.8133 9.14672 27.9567 7.07825 25.6461 5.63108C23.3354 4.18391 20.664 3.4165 17.9376 3.41669ZM6.8334 17.9375C6.8334 14.9925 8.0033 12.1681 10.0857 10.0857C12.1682 8.00325 14.9926 6.83335 17.9376 6.83335C20.8826 6.83335 23.707 8.00325 25.7894 10.0857C27.8718 12.1681 29.0417 14.9925 29.0417 17.9375C29.0417 20.8825 27.8718 23.7069 25.7894 25.7894C23.707 27.8718 20.8826 29.0417 17.9376 29.0417C14.9926 29.0417 12.1682 27.8718 10.0857 25.7894C8.0033 23.7069 6.8334 20.8825 6.8334 17.9375Z" fill="black"/>
</svg>
