<svg width="30" height="29" viewBox="0 0 30 29" fill="none" xmlns="http://www.w3.org/2000/svg">
<path d="M29.0624 0H0.937495C0.688856 0 0.4504 0.105357 0.274586 0.292893C0.0987715 0.48043 0 0.734784 0 1V2.67C0.00138749 3.14682 0.180087 3.60358 0.496872 3.94L11.2499 15.58V25.78L13.1249 26.54V15C13.1256 14.8684 13.102 14.7379 13.0553 14.6161C13.0087 14.4943 12.9399 14.3834 12.8531 14.29L1.87499 2.59V2H28.1249V2.61L17.1843 14.29C17.0906 14.3801 17.0149 14.4894 16.9618 14.6114C16.9086 14.7334 16.8791 14.8655 16.8749 15V28.21L18.7499 29V15.5L29.503 4C29.6632 3.82987 29.7898 3.62712 29.8751 3.4038C29.9605 3.18048 30.0029 2.94114 29.9998 2.7V1C29.9998 0.734784 29.9011 0.48043 29.7253 0.292893C29.5494 0.105357 29.311 0 29.0624 0Z" fill="#151515"/>
</svg>
