<?xml version="1.0" encoding="UTF-8"?>
<svg version="1.1" xmlns="http://www.w3.org/2000/svg" width="265" height="232">
<path d="M0 0 C87.45 0 174.9 0 265 0 C265 76.56 265 153.12 265 232 C177.55 232 90.1 232 0 232 C0 155.44 0 78.88 0 0 Z " fill="#0B66BD" transform="translate(0,0)"/>
<path d="M0 0 C1.02480469 -0.00773437 2.04960937 -0.01546875 3.10546875 -0.0234375 C13.24398694 0.00232748 21.69942542 1.4104414 30.625 6.3125 C31.3576709 6.70880615 32.0903418 7.1051123 32.84521484 7.51342773 C39.0620447 10.99279163 44.19447414 15.09535933 49.125 20.25 C49.74375 20.8378125 50.3625 21.425625 51 22.03125 C62.53734206 33.77461602 67.56228488 50.80108664 67.49023438 66.86474609 C67.30196735 73.57707275 66.00983404 79.79893111 64.125 86.25 C64.87136719 86.52585937 65.61773437 86.80171875 66.38671875 87.0859375 C70.09319402 88.66158605 72.89997011 90.84703655 76.125 93.25 C74.4768456 98.28382098 71.51851949 102.2760491 68.5 106.5625 C67.7265625 107.67334961 67.7265625 107.67334961 66.9375 108.80664062 C65.67108516 110.62418044 64.39863832 112.4375147 63.125 114.25 C59.495 112.27 55.865 110.29 52.125 108.25 C50.908125 109.57 49.69125 110.89 48.4375 112.25 C40.88919116 119.77460928 28.39609654 129.25 17.125 129.25 C17.125 132.88 17.125 136.51 17.125 140.25 C6.565 140.25 -3.995 140.25 -14.875 140.25 C-14.875 136.62 -14.875 132.99 -14.875 129.25 C-16.07125 129.085 -17.2675 128.92 -18.5 128.75 C-29.08949564 126.36527893 -38.217943 119.53092558 -45.88671875 112.1328125 C-47.93160053 110.08996724 -47.93160053 110.08996724 -50.875 108.25 C-51.40609375 108.63414062 -51.9371875 109.01828125 -52.484375 109.4140625 C-53.19078125 109.89617187 -53.8971875 110.37828125 -54.625 110.875 C-55.32109375 111.36226563 -56.0171875 111.84953125 -56.734375 112.3515625 C-58.875 113.25 -58.875 113.25 -60.83398438 112.53271484 C-63.09685391 111.11057172 -64.17555291 109.82618298 -65.671875 107.625 C-66.39697266 106.56539062 -66.39697266 106.56539062 -67.13671875 105.484375 C-67.62785156 104.74703125 -68.11898437 104.0096875 -68.625 103.25 C-69.13160156 102.51265625 -69.63820313 101.7753125 -70.16015625 101.015625 C-73.875 95.52847035 -73.875 95.52847035 -73.875 93.25 C-71.7578125 91.5234375 -71.7578125 91.5234375 -69 89.625 C-68.09507813 88.99335937 -67.19015625 88.36171875 -66.2578125 87.7109375 C-63.875 86.25 -63.875 86.25 -61.875 86.25 C-62.0915625 85.50878906 -62.308125 84.76757812 -62.53125 84.00390625 C-67.4616866 65.35498633 -64.98494739 48.80947672 -55.98828125 31.64453125 C-46.88823662 17.02726917 -32.52849129 6.30715118 -16.18359375 1.06640625 C-10.83755646 -0.15967831 -5.45766947 -0.04088142 0 0 Z " fill="#EEEDED" transform="translate(132.875,25.75)"/>
<path d="M0 0 C1.02480469 -0.00773437 2.04960937 -0.01546875 3.10546875 -0.0234375 C13.24398694 0.00232748 21.69942542 1.4104414 30.625 6.3125 C31.3576709 6.70880615 32.0903418 7.1051123 32.84521484 7.51342773 C39.0620447 10.99279163 44.19447414 15.09535933 49.125 20.25 C49.74375 20.8378125 50.3625 21.425625 51 22.03125 C62.60576824 33.8442641 67.54931568 50.86349393 67.41992188 67.00537109 C67.26529891 72.87704474 66.507616 78.5343642 65.125 84.25 C57.97494547 84.25 50.87320049 79.78775379 45.84326172 74.94335938 C40.0184554 65.81302927 43.14155511 50.47297036 44.125 40.25 C37.525 40.25 30.925 40.25 24.125 40.25 C24.125 46.19 24.125 52.13 24.125 58.25 C22.536875 57.239375 20.94875 56.22875 19.3125 55.1875 C18.31347656 54.55714844 17.31445312 53.92679688 16.28515625 53.27734375 C14.21031646 51.94626606 12.15452204 50.58492603 10.12109375 49.19140625 C8.69990234 48.23041016 8.69990234 48.23041016 7.25 47.25 C6.38632813 46.651875 5.52265625 46.05375 4.6328125 45.4375 C1.50244191 43.95520614 0.40972372 44.29367269 -2.875 45.25 C-5.31808202 46.61384309 -5.31808202 46.61384309 -7.7265625 48.390625 C-8.65073975 49.04264893 -9.57491699 49.69467285 -10.52709961 50.36645508 C-11.9986853 51.42255981 -11.9986853 51.42255981 -13.5 52.5 C-15.57634953 53.96811765 -17.65317945 55.43555612 -19.73046875 56.90234375 C-21.28386963 58.00425049 -21.28386963 58.00425049 -22.86865234 59.12841797 C-27.15269031 62.15166711 -31.47831891 65.11178916 -35.8125 68.0625 C-37.3386518 69.10400531 -38.86469515 70.14566955 -40.390625 71.1875 C-41.49567383 71.94160156 -41.49567383 71.94160156 -42.62304688 72.7109375 C-46.44141097 75.32053933 -50.25210592 77.9412801 -54.0625 80.5625 C-54.7527124 81.03727783 -55.4429248 81.51205566 -56.15405273 82.0012207 C-57.72782663 83.08396575 -59.30143416 84.16695261 -60.875 85.25 C-61.535 84.92 -62.195 84.59 -62.875 84.25 C-68.30102903 67.90492491 -64.7154626 50.27501166 -57.8125 35.125 C-49.19849307 18.69013881 -33.75765295 6.70126333 -16.18359375 1.06640625 C-10.83755646 -0.15967831 -5.45766947 -0.04088142 0 0 Z " fill="#EE5A41" transform="translate(132.875,25.75)"/>
<path d="M0 0 C2.62218844 1.02660149 4.74596492 2.39113972 7.08227539 3.96655273 C8.54238037 4.94543457 8.54238037 4.94543457 10.03198242 5.9440918 C11.06822754 6.64759766 12.10447266 7.35110352 13.17211914 8.07592773 C14.76902588 9.15052246 14.76902588 9.15052246 16.39819336 10.24682617 C24.69749372 15.84082973 32.96532132 21.48159921 41.21118164 27.15405273 C44.49094367 29.40859017 47.79171471 31.62794688 51.10961914 33.82592773 C46.08420211 44.78181321 33.74922556 51.29955307 22.92211914 55.32592773 C18.50617086 56.82592773 18.50617086 56.82592773 16.10961914 56.82592773 C16.10961914 60.45592773 16.10961914 64.08592773 16.10961914 67.82592773 C5.54961914 67.82592773 -5.01038086 67.82592773 -15.89038086 67.82592773 C-15.89038086 64.19592773 -15.89038086 60.56592773 -15.89038086 56.82592773 C-17.08663086 56.66092773 -18.28288086 56.49592773 -19.51538086 56.32592773 C-30.63585998 53.82163086 -41.32794329 46.13835911 -48.89038086 37.82592773 C-49.58330246 36.50604824 -50.25458916 35.17425675 -50.89038086 33.82592773 C-38.99280908 25.52667727 -27.08888155 17.23860991 -15.09619141 9.07714844 C-14.01978394 8.34371216 -14.01978394 8.34371216 -12.92163086 7.59545898 C-12.24229492 7.13606934 -11.56295898 6.67667969 -10.86303711 6.20336914 C-9.53433656 5.27558096 -8.22933332 4.31301736 -6.94897461 3.31958008 C-2.36403313 -0.21768767 -2.36403313 -0.21768767 0 0 Z " fill="#EF5B41" transform="translate(133.890380859375,98.174072265625)"/>
<path d="M0 0 C10.56 0 21.12 0 32 0 C32 11.55 32 23.1 32 35 C21.44 35 10.88 35 0 35 C0 23.45 0 11.9 0 0 Z " fill="#ECEBEC" transform="translate(118,131)"/>
<path d="M0 0 C1.65 0 3.3 0 5 0 C6.625 1.65234375 6.625 1.65234375 8 3.9375 C8.74636719 5.15566406 8.74636719 5.15566406 9.5078125 6.3984375 C11.71440761 10.24553787 13.89346167 14.09670839 16 18 C16.33 12.06 16.66 6.12 17 0 C18.65 0 20.3 0 22 0 C22 9.24 22 18.48 22 28 C16 28 16 28 14.40087891 26.43945312 C14.01335449 25.72724609 13.62583008 25.01503906 13.2265625 24.28125 C12.79472656 23.51425781 12.36289063 22.74726563 11.91796875 21.95703125 C11.49128906 21.14621094 11.06460938 20.33539063 10.625 19.5 C10.17511719 18.68917969 9.72523438 17.87835938 9.26171875 17.04296875 C8.15407924 15.03979091 7.07431698 13.0212446 6 11 C5.67 16.61 5.34 22.22 5 28 C3.35 28 1.7 28 0 28 C0 18.76 0 9.52 0 0 Z " fill="#E35A46" transform="translate(221,184)"/>
<path d="M0 0 C2.39526367 0.09399414 2.39526367 0.09399414 5 1 C6.4855957 3.37670898 6.4855957 3.37670898 7.67578125 6.49609375 C8.11083984 7.61177734 8.54589844 8.72746094 8.99414062 9.87695312 C9.42919922 11.05193359 9.86425781 12.22691406 10.3125 13.4375 C10.9940918 15.19416992 10.9940918 15.19416992 11.68945312 16.98632812 C15 25.61366306 15 25.61366306 15 28 C13.35 28 11.7 28 10 28 C9.34 26.02 8.68 24.04 8 22 C4.04 22 0.08 22 -4 22 C-4.33 23.98 -4.66 25.96 -5 28 C-6.98 28 -8.96 28 -11 28 C-8.97986427 21.75492665 -6.76356291 15.6131017 -4.375 9.5 C-4.06304687 8.69046875 -3.75109375 7.8809375 -3.4296875 7.046875 C-3.130625 6.27859375 -2.8315625 5.5103125 -2.5234375 4.71875 C-2.25450684 4.02716797 -1.98557617 3.33558594 -1.70849609 2.62304688 C-1 1 -1 1 0 0 Z " fill="#E45A46" transform="translate(58,184)"/>
<path d="M0 0 C1.65 0 3.3 0 5 0 C6.6750644 4.10078931 8.33860345 8.20615636 10 12.3125 C10.47695312 13.47974609 10.95390625 14.64699219 11.4453125 15.84960938 C11.89648438 16.96787109 12.34765625 18.08613281 12.8125 19.23828125 C13.23144531 20.26993408 13.65039062 21.30158691 14.08203125 22.36450195 C15 25 15 25 15 28 C13.35 28 11.7 28 10 28 C9.34 26.35 8.68 24.7 8 23 C4.37 23 0.74 23 -3 23 C-3.99 25.475 -3.99 25.475 -5 28 C-6.98 28 -8.96 28 -11 28 C-9.35579332 23.70770835 -7.70936065 19.416274 -6.0625 15.125 C-5.59392578 13.90167969 -5.12535156 12.67835938 -4.64257812 11.41796875 C-4.19462891 10.25136719 -3.74667969 9.08476562 -3.28515625 7.8828125 C-2.87144775 6.80402832 -2.45773926 5.72524414 -2.03149414 4.61376953 C-1 2 -1 2 0 0 Z " fill="#E65A45" transform="translate(189,184)"/>
<path d="M0 0 C13 0 13 0 18 3 C19.44430855 5.88861709 19.37688506 7.79647701 19 11 C17.0625 13.875 17.0625 13.875 14 16 C10.87327402 16.41306246 8.17628148 16.23703593 5 16 C5 19.96 5 23.92 5 28 C3.35 28 1.7 28 0 28 C0 18.76 0 9.52 0 0 Z " fill="#DE5A49" transform="translate(158,184)"/>
<path d="M0 0 C6.27 0 12.54 0 19 0 C19 1.32 19 2.64 19 4 C14.38 4 9.76 4 5 4 C5 6.64 5 9.28 5 12 C9.29 12 13.58 12 18 12 C18 13.32 18 14.64 18 16 C13.71 16 9.42 16 5 16 C5 18.31 5 20.62 5 23 C9.62 23 14.24 23 19 23 C19 24.65 19 26.3 19 28 C12.73 28 6.46 28 0 28 C0 18.76 0 9.52 0 0 Z " fill="#E65A45" transform="translate(25,184)"/>
<path d="M0 0 C2.5625 1.5 2.5625 1.5 4 3 C3.67 3.99 3.34 4.98 3 6 C2.01 6.33 1.02 6.66 0 7 C-0.66 6.34 -1.32 5.68 -2 5 C-5.08347826 4.83318891 -5.08347826 4.83318891 -8 5 C-6.56909249 8.64301317 -5.03012109 9.83723039 -1.5625 11.5625 C1.4196009 13.06091973 3.92673703 14.33342383 6 17 C6 21.09011724 5.6129983 23.25290832 3 26.4375 C-1.0896442 28.56752302 -4.47716073 28.81935494 -9 28 C-12.06588977 26.2115643 -13.55626886 25.10932785 -14.875 21.8125 C-14.91625 21.214375 -14.9575 20.61625 -15 20 C-14 19 -14 19 -11.4375 18.9375 C-10.2309375 18.9684375 -10.2309375 18.9684375 -9 19 C-8.34 20.32 -7.68 21.64 -7 23 C-4.69 23 -2.38 23 0 23 C-0.11584805 20.57539005 -0.11584805 20.57539005 -1 18 C-3.21584771 16.42267606 -3.21584771 16.42267606 -5.9375 15.375 C-10.80926797 13.28609805 -10.80926797 13.28609805 -13 10 C-13.44710264 6.497696 -13.40404695 4.66755584 -11.5625 1.625 C-7.79491911 -0.76419764 -4.34743265 -0.69399384 0 0 Z " fill="#E25A47" transform="translate(148,184)"/>
<path d="M0 0 C1.77734375 1.5234375 1.77734375 1.5234375 3 3 C2.67 3.99 2.34 4.98 2 6 C1.01 6.33 0.02 6.66 -1 7 C-1.66 6.34 -2.32 5.68 -3 5 C-5.60280568 5.32041397 -5.60280568 5.32041397 -8 6 C-7.32135421 9.14066112 -7.32135421 9.14066112 -4.78515625 10.28125 C-3.88667969 10.6834375 -2.98820312 11.085625 -2.0625 11.5 C2.78370979 13.67556468 2.78370979 13.67556468 5 17 C5.22030647 19.8018464 4.84239223 22.32219689 4 25 C1.1500389 27.8499611 -1.60757761 28.24050517 -5.5 28.5 C-9.16359539 28.37747173 -9.9813636 28.01341821 -13.125 25.75 C-15 23 -15 23 -14.8125 20.6875 C-14.544375 20.130625 -14.27625 19.57375 -14 19 C-12.68 19 -11.36 19 -10 19 C-9.67 19.99 -9.34 20.98 -9 22 C-6.69 22.33 -4.38 22.66 -2 23 C-1.67 21.68 -1.34 20.36 -1 19 C-1.70125 18.5875 -2.4025 18.175 -3.125 17.75 C-11.11111111 12.88888889 -11.11111111 12.88888889 -14 10 C-13.87022682 6.43123758 -13.72179807 3.93232251 -11.5 1.0625 C-7.77834715 -0.51920246 -3.977814 -0.74721368 0 0 Z " fill="#E45A46" transform="translate(90,184)"/>
<path d="M0 0 C2.31 0 4.62 0 7 0 C7.83848804 1.45537568 8.67063934 2.91440373 9.5 4.375 C9.9640625 5.18710938 10.428125 5.99921875 10.90625 6.8359375 C12 9 12 9 12 11 C15.0004527 8.25895243 16.58630559 5.22666806 18.42578125 1.64453125 C20 0 20 0 23.16796875 -0.23828125 C24.10253906 -0.15964844 25.03710938 -0.08101562 26 0 C25.06385433 1.72990025 24.12602042 3.45888696 23.1875 5.1875 C22.66542969 6.15042969 22.14335938 7.11335937 21.60546875 8.10546875 C20 11 20 11 18.34375 13.46875 C16.72381944 16.52024711 16.50124576 18.87732718 16.3125 22.3125 C16.21388672 23.91544922 16.21388672 23.91544922 16.11328125 25.55078125 C16.07589844 26.35902344 16.03851563 27.16726562 16 28 C14.02 28 12.04 28 10 28 C10.03222656 27.22398437 10.06445312 26.44796875 10.09765625 25.6484375 C9.98456425 15.11831571 5.88838661 9.23184553 0 1 C0 0.67 0 0.34 0 0 Z " fill="#E15A47" transform="translate(96,184)"/>
<path d="M0 0 C1.65 0 3.3 0 5 0 C5 9.24 5 18.48 5 28 C3.35 28 1.7 28 0 28 C0 18.76 0 9.52 0 0 Z " fill="#E25A47" transform="translate(209,184)"/>
<path d="M0 0 C2.31 0 4.62 0 7 0 C7.38218767 1.65614657 7.71395102 3.32457024 8 5 C7 6 7 6 3.4375 6.0625 C2.303125 6.041875 1.16875 6.02125 0 6 C0 4.02 0 2.04 0 0 Z " fill="#0F66BB" transform="translate(164,189)"/>
<path d="M0 0 C2.97903734 2.97903734 4 5.80285329 4 10 C1.69 10 -0.62 10 -3 10 C-2.49287967 6.28111761 -1.88391785 3.26545761 0 0 Z " fill="#2D65AA" transform="translate(191,192)"/>
<path d="M0 0 C2.18975773 3.28463659 2.99806563 6.20696275 4 10 C1.69 10 -0.62 10 -3 10 C-2.49287967 6.28111761 -1.88391785 3.26545761 0 0 Z " fill="#2F64AA" transform="translate(60,192)"/>
</svg>
