<?xml version="1.0" standalone="no"?>
<!DOCTYPE svg PUBLIC "-//W3C//DTD SVG 20010904//EN"
 "http://www.w3.org/TR/2001/REC-SVG-20010904/DTD/svg10.dtd">
<svg version="1.0" xmlns="http://www.w3.org/2000/svg"
 width="265.000000pt" height="232.000000pt" viewBox="0 0 265.000000 232.000000"
 preserveAspectRatio="xMidYMid meet">

<g transform="translate(0.000000,232.000000) scale(0.100000,-0.100000)"
fill="#000000" stroke="none">
<path d="M0 1160 l0 -1160 1325 0 1325 0 0 1160 0 1160 -1325 0 -1325 0 0
-1160z m1770 348 l1 -163 155 -104 c85 -58 157 -109 160 -113 3 -5 -24 -54
-61 -108 l-67 -98 -72 46 c-39 25 -179 119 -312 208 l-240 163 -160 -111
c-163 -114 -420 -289 -440 -301 -14 -8 -151 190 -138 201 22 20 169 123 442
311 l294 203 114 -76 114 -76 0 83 c0 46 3 87 7 90 3 4 51 7 105 7 l98 0 0
-162z m-260 -590 c0 -51 -3 -130 -7 -175 l-6 -83 -157 0 -157 0 -6 83 c-4 45
-7 124 -7 175 l0 92 170 0 170 0 0 -92z"/>
</g>
</svg>
